<svg width="107" height="32" viewBox="0 0 107 32" fill="none" xmlns="http://www.w3.org/2000/svg">
<g clip-path="url(#clip0_1_409)">
<mask id="mask0_1_409" style="mask-type:alpha" maskUnits="userSpaceOnUse" x="0" y="0" width="107" height="32">
<path d="M4.57118 31.4144C2.53184 31.4144 0.871887 29.762 0.871887 27.7392V4.02397C0.871887 2.00039 2.53184 0.354202 4.57118 0.354202H102.719C104.758 0.354202 106.477 2.00039 106.477 4.02397V27.7392C106.477 29.762 104.758 31.4144 102.719 31.4144H4.57118Z" fill="white"/>
</mask>
<g mask="url(#mask0_1_409)">
<path d="M4.57125 31.1051C2.70171 31.1051 1.18256 29.59 1.18256 27.7405V4.02523C1.18256 2.17557 2.70107 0.666071 4.57125 0.666071H102.72C104.595 0.666071 106.166 2.18181 106.166 4.02523V27.7405C106.166 29.5838 104.595 31.1051 102.72 31.1051H4.57125Z" fill="white" stroke="#306FD5" stroke-width="0.621205"/>
<path fill-rule="evenodd" clip-rule="evenodd" d="M42.4616 24.8182H40.6747L39.6958 21.7828H36.2934L35.361 24.8182H33.6212L36.9922 14.4844H39.0742L42.4616 24.8182ZM39.4007 20.5093L38.5155 17.811C38.4219 17.5353 38.2464 16.8862 37.9875 15.8643H37.9561C37.853 16.3038 37.6869 16.9529 37.4588 17.811L36.5893 20.5093H39.4007ZM51.1304 21.0009C51.1304 22.2681 50.7834 23.2698 50.0894 24.0052C49.4678 24.6597 48.6959 24.9867 47.7745 24.9867C46.7799 24.9867 46.0654 24.6341 45.6303 23.9291H45.5988V27.8543H43.9212V19.8198C43.9212 19.0231 43.9 18.2054 43.8591 17.3668H45.3344L45.4281 18.5479H45.4595C46.019 17.658 46.868 17.2138 48.0074 17.2138C48.8981 17.2138 49.6417 17.5609 50.2366 18.2559C50.833 18.9517 51.1304 19.8664 51.1304 21.0009ZM49.4214 21.0614C49.4214 20.3362 49.2561 19.7383 48.9241 19.2677C48.5613 18.7769 48.0743 18.5316 47.4637 18.5316C47.0498 18.5316 46.6737 18.6682 46.3377 18.9377C46.0009 19.2095 45.7806 19.5643 45.6775 20.0038C45.6256 20.2088 45.5996 20.3765 45.5996 20.5086V21.751C45.5996 22.293 45.768 22.7503 46.1048 23.1238C46.4415 23.4973 46.879 23.6837 47.4173 23.6837C48.0491 23.6837 48.5409 23.443 48.8926 22.9631C49.2451 22.4824 49.4214 21.8488 49.4214 21.0614ZM59.815 21.0009C59.815 22.2681 59.468 23.2698 58.7732 24.0052C58.1524 24.6597 57.3805 24.9867 56.4591 24.9867C55.4645 24.9867 54.75 24.6341 54.3156 23.9291H54.2842V27.8543H52.6066V19.8198C52.6066 19.0231 52.5853 18.2054 52.5444 17.3668H54.0198L54.1134 18.5479H54.1449C54.7036 17.658 55.5526 17.2138 56.6927 17.2138C57.5827 17.2138 58.3263 17.5609 58.9227 18.2559C59.5168 18.9517 59.815 19.8664 59.815 21.0009ZM58.1059 21.0614C58.1059 20.3362 57.9399 19.7383 57.6079 19.2677C57.2451 18.7769 56.7596 18.5316 56.1482 18.5316C55.7336 18.5316 55.3582 18.6682 55.0215 18.9377C54.6847 19.2095 54.4651 19.5643 54.3621 20.0038C54.3109 20.2088 54.2842 20.3765 54.2842 20.5086V21.751C54.2842 22.293 54.4526 22.7503 54.7878 23.1238C55.1245 23.4965 55.562 23.6837 56.1018 23.6837C56.7337 23.6837 57.2254 23.443 57.5772 22.9631C57.9297 22.4824 58.1059 21.8488 58.1059 21.0614ZM69.5248 21.9202C69.5248 22.7992 69.2156 23.5144 68.5948 24.0665C67.9126 24.6698 66.9628 24.9711 65.7424 24.9711C64.6156 24.9711 63.7123 24.7568 63.0285 24.3274L63.4172 22.9476C64.1537 23.3871 64.9618 23.6076 65.8423 23.6076C66.4742 23.6076 66.966 23.4663 67.3193 23.1852C67.671 22.9041 67.8465 22.5267 67.8465 22.0561C67.8465 21.6368 67.7017 21.2835 67.4113 20.997C67.1226 20.7104 66.6402 20.4441 65.9667 20.1979C64.1333 19.5232 63.2174 18.5347 63.2174 17.2348C63.2174 16.3853 63.5384 15.6888 64.1813 15.1468C64.8218 14.604 65.6763 14.333 66.7449 14.333C67.6978 14.333 68.4893 14.4968 69.1212 14.8238L68.7018 16.1733C68.1116 15.8565 67.4444 15.6981 66.6977 15.6981C66.1075 15.6981 65.6464 15.8418 65.3159 16.1275C65.0366 16.383 64.8965 16.6944 64.8965 17.0632C64.8965 17.4716 65.0563 17.8094 65.3773 18.075C65.6566 18.3204 66.1642 18.5859 66.9007 18.8725C67.8016 19.2304 68.4634 19.649 68.8891 20.1288C69.3132 20.6072 69.5248 21.2059 69.5248 21.9202ZM75.0714 18.6092H73.2223V22.227C73.2223 23.1471 73.5481 23.6068 74.2012 23.6068C74.5009 23.6068 74.7496 23.5812 74.9463 23.5299L74.9927 24.7871C74.6623 24.909 74.2271 24.9704 73.6881 24.9704C73.0256 24.9704 72.5078 24.7708 72.1341 24.3724C71.7619 23.9733 71.5746 23.304 71.5746 22.3636V18.6077H70.473V17.3653H71.5746V16.0009L73.2223 15.5102V17.3653H75.0714V18.6092ZM83.4145 21.0311C83.4145 22.1765 83.0824 23.1168 82.4199 23.8522C81.7251 24.6093 80.8029 24.9867 79.6533 24.9867C78.5454 24.9867 77.6633 24.624 77.0055 23.8988C76.3477 23.1735 76.0188 22.258 76.0188 21.1546C76.0188 19.9999 76.3571 19.0542 77.0362 18.3188C77.7137 17.5827 78.628 17.2146 79.7776 17.2146C80.8855 17.2146 81.777 17.5772 82.4498 18.3033C83.0934 19.0076 83.4145 19.9169 83.4145 21.0311ZM81.674 21.0847C81.674 20.3975 81.5252 19.8081 81.2239 19.3166C80.8721 18.7218 80.3693 18.4252 79.7178 18.4252C79.0435 18.4252 78.5312 18.7226 78.1795 19.3166C77.8781 19.8089 77.7294 20.4076 77.7294 21.1158C77.7294 21.803 77.8781 22.3924 78.1795 22.8831C78.5423 23.4779 79.049 23.7745 79.7029 23.7745C80.3434 23.7745 80.8462 23.4717 81.2089 22.8676C81.5182 22.3667 81.674 21.7711 81.674 21.0847ZM88.8674 18.8228C88.7014 18.7925 88.5243 18.7769 88.3387 18.7769C87.7485 18.7769 87.2921 18.9967 86.9711 19.437C86.6918 19.8252 86.5517 20.316 86.5517 20.9085V24.8182H84.8749L84.8906 19.7134C84.8906 18.8546 84.8694 18.0727 84.8277 17.3676H86.2889L86.3503 18.7932H86.3967C86.5737 18.3033 86.8531 17.9088 87.2355 17.613C87.6092 17.3466 88.0129 17.2138 88.448 17.2138C88.603 17.2138 88.7431 17.2247 88.8674 17.2441V18.8228ZM96.3701 20.7399C96.3701 21.0366 96.3505 21.2866 96.3087 21.4908H91.276C91.2957 22.227 91.5388 22.7899 92.0062 23.1782C92.4303 23.5253 92.9788 23.6992 93.6523 23.6992C94.3975 23.6992 95.0773 23.582 95.6887 23.3467L95.9515 24.4959C95.237 24.8034 94.3935 24.9564 93.4202 24.9564C92.2493 24.9564 91.3303 24.6163 90.6615 23.9368C89.9942 23.2574 89.6598 22.345 89.6598 21.2004C89.6598 20.0768 89.9706 19.1411 90.593 18.3949C91.2445 17.5982 92.125 17.1999 93.2329 17.1999C94.3211 17.1999 95.145 17.5982 95.7044 18.3949C96.1474 19.0278 96.3701 19.8105 96.3701 20.7399ZM94.7704 20.3105C94.7815 19.8198 94.6721 19.3958 94.4447 19.0378C94.1543 18.5774 93.7082 18.3475 93.1078 18.3475C92.5594 18.3475 92.1132 18.5719 91.7725 19.0223C91.4932 19.3803 91.3271 19.8097 91.276 20.3098H94.7704V20.3105ZM38.846 8.12717C38.846 9.04111 38.5682 9.7291 38.0135 10.1911C37.4997 10.6174 36.7695 10.831 35.8237 10.831C35.3547 10.831 34.9534 10.8108 34.6174 10.7704V5.77668C35.0557 5.7068 35.5278 5.67108 36.0377 5.67108C36.9386 5.67108 37.6177 5.86443 38.0757 6.25113C38.5887 6.6883 38.846 7.31339 38.846 8.12717ZM37.9765 8.14969C37.9765 7.55721 37.8176 7.10296 37.4997 6.78614C37.1818 6.4701 36.7175 6.3117 36.1061 6.3117C35.8465 6.3117 35.6254 6.32878 35.442 6.3645V10.1608C35.5435 10.1764 35.7292 10.1834 35.9991 10.1834C36.6302 10.1834 37.1173 10.0102 37.4603 9.66387C37.8034 9.31755 37.9765 8.81282 37.9765 8.14969ZM43.4562 8.92541C43.4562 9.48838 43.2933 9.94963 42.9676 10.3115C42.6261 10.6834 42.1736 10.869 41.6087 10.869C41.0642 10.869 40.6306 10.6912 40.3072 10.334C39.9846 9.97758 39.8233 9.52798 39.8233 8.98598C39.8233 8.41913 39.9893 7.95401 40.3229 7.59293C40.6566 7.23186 41.1051 7.05093 41.67 7.05093C42.2145 7.05093 42.652 7.22875 42.9833 7.58517C43.298 7.93149 43.4562 8.37875 43.4562 8.92541ZM42.6009 8.95182C42.6009 8.61404 42.5269 8.3244 42.3798 8.08291C42.2067 7.79094 41.9604 7.64496 41.6401 7.64496C41.3089 7.64496 41.0571 7.79094 40.884 8.08291C40.736 8.3244 40.6628 8.6187 40.6628 8.96657C40.6628 9.30435 40.7368 9.59399 40.884 9.83548C41.0626 10.1274 41.3112 10.2734 41.6323 10.2734C41.947 10.2734 42.1941 10.1251 42.3719 9.82771C42.5246 9.58156 42.6009 9.2896 42.6009 8.95182ZM49.6378 7.12547L48.4772 10.7859H47.7218L47.241 9.19642C47.119 8.79962 47.0199 8.40516 46.9428 8.0138H46.9278C46.8562 8.41603 46.7571 8.80972 46.6296 9.19642L46.1189 10.7859H45.3549L44.2635 7.12547H45.111L45.5304 8.86562C45.6319 9.27717 45.7153 9.66931 45.7822 10.0405H45.7971C45.8585 9.73453 45.96 9.34473 46.1032 8.87339L46.6296 7.12625H47.3016L47.806 8.83612C47.9279 9.2531 48.0271 9.65455 48.1034 10.0413H48.1262C48.1821 9.66465 48.2663 9.26319 48.378 8.83612L48.8281 7.12625H49.6378V7.12547ZM53.9128 10.7859H53.0881V8.68936C53.0881 8.0433 52.8395 7.72028 52.3406 7.72028C52.0959 7.72028 51.8984 7.8088 51.745 7.98662C51.5931 8.16444 51.516 8.3741 51.516 8.61404V10.7851H50.6914V8.17143C50.6914 7.84995 50.6811 7.5013 50.6615 7.12392H51.3862L51.4247 7.69621H51.4475C51.5435 7.51839 51.6868 7.37163 51.8748 7.25437C52.0983 7.11771 52.3485 7.0486 52.6223 7.0486C52.9685 7.0486 53.2565 7.15886 53.4855 7.38017C53.7704 7.65117 53.9128 8.05573 53.9128 8.59307V10.7859ZM56.1868 10.7859H55.363V5.44589H56.1868V10.7859ZM61.0417 8.92541C61.0417 9.48838 60.8788 9.94963 60.5531 10.3115C60.2116 10.6834 59.7584 10.869 59.1942 10.869C58.6489 10.869 58.2153 10.6912 57.8927 10.334C57.5701 9.97758 57.4088 9.52798 57.4088 8.98598C57.4088 8.41913 57.5748 7.95401 57.9084 7.59293C58.2421 7.23186 58.6906 7.05093 59.2548 7.05093C59.8001 7.05093 60.2368 7.22875 60.5688 7.58517C60.8836 7.93149 61.0417 8.37875 61.0417 8.92541ZM60.1856 8.95182C60.1856 8.61404 60.1117 8.3244 59.9645 8.08291C59.7922 7.79094 59.5451 7.64496 59.2256 7.64496C58.8936 7.64496 58.6418 7.79094 58.4695 8.08291C58.3215 8.3244 58.2484 8.6187 58.2484 8.96657C58.2484 9.30435 58.3223 9.59399 58.4695 9.83548C58.6481 10.1274 58.8967 10.2734 59.2178 10.2734C59.5325 10.2734 59.7788 10.1251 59.9566 9.82771C60.1101 9.58156 60.1856 9.2896 60.1856 8.95182ZM65.0327 10.7859H64.2922L64.2309 10.3643H64.208C63.9547 10.7005 63.5935 10.869 63.1245 10.869C62.7744 10.869 62.4911 10.758 62.2779 10.5374C62.0843 10.3371 61.9875 10.0878 61.9875 9.79199C61.9875 9.34473 62.1764 9.00384 62.5564 8.76778C62.9357 8.53173 63.4692 8.41603 64.1561 8.42146V8.35313C64.1561 7.87092 63.8996 7.6302 63.3858 7.6302C63.0199 7.6302 62.6973 7.72105 62.4187 7.9012L62.2511 7.36697C62.5958 7.15653 63.0215 7.05093 63.5235 7.05093C64.4929 7.05093 64.9792 7.55566 64.9792 8.56512V9.91313C64.9792 10.2789 64.9973 10.5701 65.0327 10.7859ZM64.1766 9.52798V8.96346C63.267 8.94793 62.8122 9.19409 62.8122 9.70114C62.8122 9.89216 62.8641 10.035 62.9703 10.1306C63.0765 10.2261 63.2119 10.2734 63.3732 10.2734C63.5542 10.2734 63.7233 10.2167 63.8776 10.1042C64.0326 9.99078 64.1278 9.84713 64.1632 9.67086C64.1718 9.63126 64.1766 9.58311 64.1766 9.52798ZM69.7184 10.7859H68.9866L68.9481 10.1981H68.9253C68.6916 10.6454 68.2934 10.869 67.734 10.869C67.287 10.869 66.9148 10.6958 66.6198 10.3495C66.3247 10.0032 66.1776 9.55361 66.1776 9.00151C66.1776 8.40904 66.3373 7.92916 66.6583 7.56265C66.9691 7.22098 67.35 7.05015 67.8032 7.05015C68.3013 7.05015 68.6499 7.21555 68.8481 7.54712H68.8639V5.44589H69.6893V9.79976C69.6893 10.1562 69.6987 10.4846 69.7184 10.7859ZM68.8639 9.24223V8.6319C68.8639 8.52629 68.856 8.44088 68.8411 8.37565C68.7946 8.17997 68.6947 8.01535 68.5428 7.88257C68.3894 7.74979 68.2045 7.68301 67.9913 7.68301C67.6836 7.68301 67.4428 7.80336 67.2658 8.04486C67.0903 8.28635 67.0014 8.59462 67.0014 8.97123C67.0014 9.33308 67.0856 9.6266 67.2548 9.85256C67.4334 10.0933 67.6742 10.2136 67.9755 10.2136C68.2462 10.2136 68.4626 10.1135 68.627 9.91235C68.786 9.72677 68.8639 9.50313 68.8639 9.24223ZM76.771 8.92541C76.771 9.48838 76.6082 9.94963 76.2824 10.3115C75.9409 10.6834 75.4892 10.869 74.9235 10.869C74.3798 10.869 73.9462 10.6912 73.622 10.334C73.2994 9.97758 73.1381 9.52798 73.1381 8.98598C73.1381 8.41913 73.3041 7.95401 73.6378 7.59293C73.9714 7.23186 74.4199 7.05093 74.9857 7.05093C75.5294 7.05093 75.9676 7.22875 76.2981 7.58517C76.6129 7.93149 76.771 8.37875 76.771 8.92541ZM75.9165 8.95182C75.9165 8.61404 75.8425 8.3244 75.6954 8.08291C75.5215 7.79094 75.276 7.64496 74.955 7.64496C74.6245 7.64496 74.3727 7.79094 74.1988 8.08291C74.0509 8.3244 73.9777 8.6187 73.9777 8.96657C73.9777 9.30435 74.0517 9.59399 74.1988 9.83548C74.3774 10.1274 74.6261 10.2734 74.9471 10.2734C75.2618 10.2734 75.5097 10.1251 75.6875 9.82771C75.8394 9.58156 75.9165 9.2896 75.9165 8.95182ZM81.205 10.7859H80.3811V8.68936C80.3811 8.0433 80.1325 7.72028 79.6328 7.72028C79.3881 7.72028 79.1906 7.8088 79.038 7.98662C78.8853 8.16444 78.809 8.3741 78.809 8.61404V10.7851H77.9836V8.17143C77.9836 7.84995 77.9741 7.5013 77.9545 7.12392H78.6784L78.7169 7.69621H78.7398C78.8365 7.51839 78.9797 7.37163 79.167 7.25437C79.3913 7.11771 79.6407 7.0486 79.9153 7.0486C80.2608 7.0486 80.5487 7.15886 80.7777 7.38017C81.0634 7.65117 81.205 8.05573 81.205 8.59307V10.7859ZM86.7547 7.73503H85.8467V9.51323C85.8467 9.96516 86.008 10.1911 86.3274 10.1911C86.4754 10.1911 86.5981 10.1787 86.6949 10.1531L86.7162 10.7704C86.5533 10.831 86.3392 10.8612 86.0756 10.8612C85.7499 10.8612 85.4965 10.7634 85.3132 10.5677C85.1291 10.372 85.0378 10.0428 85.0378 9.58079V7.73503H84.4956V7.12547H85.0378V6.45457L85.8459 6.21386V7.1247H86.7539V7.73503H86.7547ZM91.1202 10.7859H90.2948V8.70489C90.2948 8.04874 90.0461 7.72028 89.5481 7.72028C89.1656 7.72028 88.9044 7.91052 88.7612 8.29101C88.7368 8.37099 88.7226 8.46883 88.7226 8.58375V10.7851H87.8988V5.44589H88.7226V7.65195H88.7384C88.998 7.25049 89.3702 7.05015 89.8526 7.05015C90.1941 7.05015 90.4766 7.16042 90.7008 7.38172C90.9801 7.65738 91.1202 8.06738 91.1202 8.60938V10.7859ZM95.6234 8.78254C95.6234 8.92852 95.6124 9.05121 95.5927 9.15138H93.1196C93.1306 9.51323 93.2487 9.78889 93.4776 9.97991C93.6869 10.1507 93.9568 10.2362 94.2873 10.2362C94.6532 10.2362 94.9868 10.1787 95.2874 10.063L95.4165 10.6283C95.0647 10.7789 94.6508 10.8543 94.1716 10.8543C93.5972 10.8543 93.1448 10.6873 92.8175 10.3534C92.4885 10.0195 92.3257 9.57147 92.3257 9.00928C92.3257 8.45718 92.4775 7.99749 92.7836 7.63098C93.1031 7.23962 93.5351 7.04394 94.0804 7.04394C94.6139 7.04394 95.0191 7.23962 95.2929 7.63098C95.514 7.94158 95.6234 8.32595 95.6234 8.78254ZM94.8365 8.5721C94.8428 8.33061 94.7885 8.12251 94.6768 7.94702C94.5336 7.72105 94.3156 7.60768 94.0206 7.60768C93.7515 7.60768 93.5319 7.71795 93.3643 7.93925C93.2274 8.11552 93.1464 8.32595 93.1196 8.5721H94.8365Z" fill="#0F2852"/>
<path fill-rule="evenodd" clip-rule="evenodd" d="M23.9569 15.7172C23.9828 18.7168 26.6156 19.7084 26.6479 19.7192C26.6321 19.7891 26.2356 21.1503 25.2481 22.5325C24.4235 23.7492 23.5595 24.9388 22.1873 24.9606C20.8544 24.9908 20.4059 24.1864 18.877 24.1864C17.334 24.1864 16.8564 24.9388 15.5778 24.9908C14.2708 25.0382 13.2723 23.6918 12.4178 22.4859C10.7096 20.0236 9.37982 15.5472 11.1628 12.501C12.0268 11.007 13.602 10.045 15.2859 10.0193C16.5944 9.99293 17.8085 10.8913 18.6126 10.8913C19.4011 10.8913 20.9024 9.81667 22.4501 9.9774C23.0976 9.99603 24.9404 10.2298 26.1294 11.9404C26.0334 11.997 23.9341 13.2146 23.9569 15.7172ZM21.439 8.35764C20.7214 9.19314 19.5734 9.8322 18.4553 9.74989C18.3089 8.62242 18.8754 7.42352 19.5096 6.69207C20.2265 5.862 21.4712 5.22605 22.4666 5.18257C22.5972 6.3543 22.1267 7.50894 21.439 8.35764Z" fill="#0F2852"/>
</g>
</g>
<defs>
<clipPath id="clip0_1_409">
<rect width="105.605" height="31.0602" fill="white" transform="translate(0.871796 0.356079)"/>
</clipPath>
</defs>
</svg>
