<svg width="65" height="64" viewBox="0 0 65 64" fill="none" xmlns="http://www.w3.org/2000/svg">
  <path d="M59.8413 13.7722C59.8413 11.0987 57.6539 8.91139 54.9805 8.91139H18.5232C15.8498 8.91139 13.6625 11.0987 13.6625 13.7722V59.1392C13.6625 61.8127 15.8498 64 18.5232 64H46.0652L59.8373 51.038L59.8413 13.7722Z" fill="#F2F8FD"/>
  <path d="M13.6625 13.7722C13.6625 11.0987 15.8498 8.91139 18.5233 8.91139H50.9299V4.86076C50.9299 2.18734 48.7426 0 46.0691 0H9.61186C6.93844 0 4.7511 2.18734 4.7511 4.86076V50.2278C4.7511 52.9013 6.93844 55.0886 9.61186 55.0886H13.6625V13.7722Z" fill="#306FD5"/>
  <path d="M50.9267 51.038H59.8381L46.0659 64V55.8987C46.0659 53.2253 48.2533 51.038 50.9267 51.038Z" fill="#9BD0FF"/>
  <path d="M25.8143 30.3798H47.6877C48.3594 30.3798 48.9029 29.8353 48.9029 29.1646C48.9029 28.493 48.3592 27.9494 47.6877 27.9494H25.8143C25.1428 27.9494 24.5991 28.493 24.5991 29.1646C24.5991 29.8353 25.1426 30.3798 25.8143 30.3798Z" fill="#0C1D3E"/>
  <path d="M25.8143 22.2785H47.6877C48.3594 22.2785 48.9029 21.734 48.9029 21.0633C48.9029 20.3918 48.3592 19.8481 47.6877 19.8481H25.8143C25.1428 19.8481 24.5991 20.3918 24.5991 21.0633C24.5991 21.734 25.1426 22.2785 25.8143 22.2785Z" fill="#0C1D3E"/>
  <path d="M25.8143 38.481H47.6877C48.3594 38.481 48.9029 37.9366 48.9029 37.2659C48.9029 36.5943 48.3592 36.0507 47.6877 36.0507H25.8143C25.1428 36.0507 24.5991 36.5943 24.5991 37.2659C24.5991 37.9366 25.1426 38.481 25.8143 38.481Z" fill="#0C1D3E"/>
  <path d="M25.8143 46.5823H37.9662C38.6377 46.5823 39.1814 46.0378 39.1814 45.3671C39.1814 44.6954 38.6377 44.1519 37.9662 44.1519H25.8143C25.1428 44.1519 24.5991 44.6954 24.5991 45.3671C24.5991 46.0378 25.1426 46.5823 25.8143 46.5823Z" fill="#0C1D3E"/>
</svg>
