<svg width="65" height="64" viewBox="0 0 65 64" fill="none" xmlns="http://www.w3.org/2000/svg">
              <path d="M62.2114 50.7539C62.1266 49.8988 61.3633 49.2755 60.5082 49.3611L56.8799 49.726C59.5814 45.2637 61.1391 40.0256 61.1391 34.4336C61.1391 27.5639 58.7909 21.2271 54.8561 16.2092C50.9213 11.1891 45.3984 7.47296 39.0383 5.81786C38.2059 5.6016 37.3562 6.10037 37.1405 6.9321C36.9243 7.76383 37.4231 8.61349 38.2548 8.82989C43.9388 10.3083 48.8834 13.6338 52.4067 18.1288C55.9282 22.6252 58.0268 28.2765 58.0275 34.4336C58.0268 39.4577 56.6293 44.1432 54.201 48.1411L52.9857 44.4918C52.7141 43.6764 51.8333 43.2352 51.017 43.5068C50.2023 43.7783 49.7619 44.6591 50.0327 45.4745L52.6323 53.2802L60.8201 52.457C61.6738 52.3714 62.2979 51.609 62.2114 50.7539Z" fill="#0C1D3E"/>
              <path d="M51.4125 54.267C50.8391 53.6266 49.8548 53.5722 49.2151 54.1455C44.5287 58.3402 38.3554 60.8877 31.5713 60.8884C21.783 60.8899 13.2537 55.5648 8.67545 47.664L12.895 47.9394C13.7532 47.9955 14.4931 47.3457 14.5492 46.4882C14.6053 45.6301 13.9564 44.8901 13.0988 44.8341L4.88852 44.2979L2.56277 52.1915C2.31917 53.0163 2.79149 53.8816 3.61623 54.1243C4.44097 54.367 5.30628 53.8955 5.54898 53.0708H5.54822L6.44924 50.0121C11.6632 58.4062 20.962 63.9982 31.5712 63.9997C39.142 64.0005 46.063 61.1472 51.2909 56.4632C51.9307 55.8908 51.9859 54.9072 51.4125 54.267Z" fill="#306FD5"/>
              <path d="M35.5808 6.2926L29.7755 0.458493C29.1695 -0.150753 28.1844 -0.153032 27.5752 0.453022C26.9659 1.05908 26.9644 2.04414 27.5704 2.65339H27.5697L29.8261 4.92153C14.3096 5.82651 2.00491 18.6906 2.00415 34.4336C2.00415 36.8783 2.3014 39.2562 2.86308 41.5313C3.06855 42.3655 3.91198 42.8758 4.74599 42.6697C5.58015 42.4635 6.09046 41.6208 5.88439 40.7868C5.38259 38.7521 5.11725 36.6256 5.11725 34.4337C5.11801 27.1237 8.07625 20.52 12.8662 15.727C17.4895 11.1052 23.8037 8.19754 30.808 7.99755L28.5406 11.5635C28.0785 12.2887 28.2932 13.2504 29.0176 13.7118C29.7436 14.1731 30.7053 13.9584 31.1667 13.2332L35.5808 6.2926Z" fill="#9BD0FF"/>
              <path d="M36.1581 21.6239C36.0569 21.2092 35.6321 20.7914 35.2142 20.6964L32.4987 20.2856C32.0715 20.2553 31.5425 20.5308 31.3223 20.8979C31.3223 20.8979 30.3108 22.5848 28.9072 22.9349C27.5019 23.2836 25.8198 22.2658 25.8198 22.2658C25.4532 22.0441 24.8564 22.0479 24.4947 22.2751L22.2849 23.9083C21.9612 24.1876 21.7807 24.7557 21.8834 25.1712C21.8834 25.1712 22.3627 27.0782 21.6158 28.3177C20.8696 29.5556 18.9594 30.0264 18.9594 30.0264C18.5431 30.1292 18.1269 30.5547 18.0312 30.9718L17.6211 33.6866C17.5924 34.1138 17.8663 34.6437 18.2334 34.863C18.2334 34.863 19.9203 35.8745 20.2666 37.279C20.616 38.6811 19.5983 40.3649 19.5983 40.3649C19.3765 40.7313 19.3803 41.3274 19.6075 41.6907L21.2415 43.899C21.5208 44.2234 22.0889 44.404 22.5044 44.3005C22.5044 44.3005 24.413 43.8235 25.6517 44.5689C26.8904 45.315 27.3604 47.2276 27.3604 47.2276C27.4631 47.6431 27.8887 48.0601 28.3051 48.1558L31.0206 48.5651C31.4478 48.5947 31.9768 48.3199 32.197 47.9528C32.197 47.9528 33.21 46.2682 34.6121 45.9196C36.0166 45.5687 37.7003 46.5887 37.7003 46.5887C38.0668 46.8112 38.6627 46.8074 39.0253 46.5802L41.2336 44.9477C41.5588 44.6692 41.7386 44.1011 41.6351 43.6856C41.6351 43.6856 41.158 41.7746 41.9027 40.5351C42.6521 39.2957 44.5622 38.8264 44.5622 38.8264C44.9784 38.7237 45.3956 38.2997 45.4904 37.8817L45.9004 35.167C45.9308 34.7398 45.656 34.2108 45.2896 33.9906C45.2896 33.9906 43.5996 32.9775 43.2519 31.5738C42.9033 30.1702 43.9234 28.4864 43.9234 28.4864C44.1436 28.1207 44.1389 27.524 43.9125 27.1606L42.2785 24.9523C41.9999 24.6279 41.4319 24.4481 41.0156 24.5516C41.0156 24.5516 39.1078 25.0309 37.8691 24.2832C36.6274 23.5349 36.1581 21.6239 36.1581 21.6239Z" fill="#306FD5"/>
              <path d="M34.6106 29.6895C37.2242 31.2667 38.0676 34.6623 36.4952 37.2758C34.918 39.8909 31.5239 40.7344 28.9088 39.1587C26.2953 37.5839 25.4518 34.1875 27.0243 31.5739C28.6006 28.9598 31.9985 28.1178 34.6106 29.6895Z" fill="#0C1D3E"/>
              <path d="M36.071 30.9664C37.4786 32.7225 37.7229 35.2373 36.495 37.2758C35.4555 38.9986 33.6286 39.9525 31.7549 39.9525C30.7838 39.9525 29.8012 39.6966 28.9087 39.1589C28.6745 39.0173 28.4543 38.8609 28.2473 38.692L35.4049 45.8481C36.5783 45.9088 37.698 46.5866 37.698 46.5866C37.8785 46.6963 38.1142 46.7507 38.3516 46.7507C38.5952 46.7507 38.8394 46.6931 39.0232 46.5779L41.2314 44.9454C41.496 44.719 41.6649 44.3012 41.6617 43.93C41.6617 43.8444 41.6524 43.7611 41.6329 43.6833C41.6329 43.6833 41.482 43.0788 41.4828 42.3287C41.4828 41.7451 41.5746 41.0745 41.9006 40.5321C42.411 39.6855 43.466 39.1984 44.0822 38.9744L36.071 30.9664Z" fill="#306FD5"/>
            </svg>
