<svg width="65" height="64" viewBox="0 0 65 64" fill="none" xmlns="http://www.w3.org/2000/svg">
              <g clip-path="url(#clip0_5_84)">
              <g clip-path="url(#clip1_5_84)">
              <path d="M26.5617 52.6082C26.7404 52.2433 26.9196 51.9009 27.1059 51.6136L46.027 21.716H46.0262L50.1721 15.1711C50.8351 14.1252 52.0292 13.6183 53.1845 13.7612V10.0937H5.82544V51.366C5.82544 53.9272 7.92242 56.0242 10.4837 56.0242H25.3653C25.6301 54.893 26.0663 53.6369 26.5617 52.6082Z" fill="#F2F8FD"/>
              <path d="M26.0113 17.9801C26.0113 16.2714 24.6145 14.8746 22.9057 14.8746H15.142C13.4332 14.8746 12.0364 16.2714 12.0364 17.9801V25.7439C12.0364 27.4527 13.4332 28.8495 15.142 28.8495H22.9057C24.6145 28.8495 26.0113 27.4527 26.0113 25.7439V17.9801Z" fill="#306FD5"/>
              <path d="M26.0113 36.6132C26.0113 34.9052 24.6138 33.5077 22.9057 33.5077H15.142C13.4339 33.5077 12.0364 34.9052 12.0364 36.6132V44.377C12.0364 46.0851 13.4339 47.4825 15.142 47.4825H22.9057C24.6138 47.4825 26.0113 46.0851 26.0113 44.377V36.6132Z" fill="#9BD0FF"/>
              <path d="M53.1845 28.8589L36.1584 55.7634L36.5862 56.0227H48.5261C51.0874 56.0227 53.1843 53.9257 53.1843 51.3644V28.8589" fill="#F2F8FD"/>
              <path d="M23.988 19.2099C24.1323 19.5857 24.0803 20.0251 23.8093 20.3605L19.7124 25.3985C19.5153 25.6399 19.2302 25.7929 18.9206 25.8225C18.7148 25.8427 18.5115 25.8023 18.3259 25.7177L21.4562 28.8489H22.905C24.6138 28.8489 26.0105 27.4521 26.0105 25.7433V21.2319L23.988 19.2099Z" fill="#306FD5"/>
              <path d="M15.1723 23.1485L18.0628 25.5583C18.3019 25.7579 18.6117 25.8534 18.9207 25.8231C19.2298 25.7935 19.5155 25.6407 19.7126 25.3991L23.8095 20.3611C24.2141 19.862 24.1395 19.1291 23.6403 18.723C23.1403 18.3177 22.4082 18.3931 22.0021 18.8915L18.6498 23.0148L16.6645 21.3595C16.1701 20.948 15.4348 21.0148 15.024 21.5086C14.6117 22.0026 14.6776 22.737 15.1723 23.1485Z" fill="#0C1D3E"/>
              <path d="M53.1845 0H5.82544V10.0929H53.1845V0Z" fill="#306FD5"/>
              <path d="M46.3198 17.8986C46.3897 17.786 46.5139 17.7216 46.6505 17.7208C46.7234 17.7216 46.7886 17.7387 46.8548 17.7806L48.0427 18.5328L49.2896 16.5648L48.0994 15.8117C47.6515 15.5283 47.1453 15.3909 46.6507 15.3917C45.7548 15.3909 44.868 15.8374 44.3502 16.6556L44.3509 16.6541L37.2657 27.8503C36.9218 28.3938 37.0841 29.1127 37.6268 29.4573C38.1695 29.8013 38.8899 29.639 39.2338 29.0963L46.3183 17.9001L46.3198 17.8986Z" fill="#0C1D3E"/>
              <path d="M46.0271 21.7162L54.364 26.9948L35.4443 56.8931C35.2579 57.1803 35.0327 57.4908 34.7774 57.81L26.5617 52.6083C26.7403 52.2435 26.9196 51.9018 27.1059 51.6137L46.0271 21.7162Z" fill="#0C1D3E"/>
              <path d="M26.5617 52.6074L34.7759 57.8091C33.7751 59.0591 32.2922 60.4177 31.1276 61.1242L26.9974 63.6086C25.5377 64.4937 24.4826 63.8261 24.6528 62.1258L25.1341 57.3277C25.2737 55.9692 25.8637 54.0593 26.5617 52.6074Z" fill="#306FD5"/>
              <path d="M57.5477 16.1641C58.9918 17.0724 59.4265 19.0057 58.5097 20.442L54.3638 26.9946L46.0262 21.7153L50.1721 15.1703C51.0883 13.7263 53.0137 13.2915 54.4577 14.2076L57.5477 16.1641Z" fill="#306FD5"/>
              </g>
              </g>
              <defs>
              <clipPath id="clip0_5_84">
              <rect width="64" height="64" fill="white" transform="translate(0.407898)"/>
              </clipPath>
              <clipPath id="clip1_5_84">
              <rect width="64" height="64" fill="white" transform="translate(0.407898)"/>
              </clipPath>
              </defs>
            </svg>
