<svg width="23" height="23" viewBox="0 0 23 23" fill="none" xmlns="http://www.w3.org/2000/svg">
<path d="M21.2399 16.456V19.456C21.2411 19.7345 21.184 20.0102 21.0724 20.2653C20.9609 20.5205 20.7972 20.7496 20.592 20.9379C20.3868 21.1261 20.1445 21.2695 19.8807 21.3587C19.6168 21.4479 19.3373 21.4811 19.0599 21.456C15.9828 21.1216 13.0269 20.0701 10.4299 18.386C8.01375 16.8507 5.96526 14.8022 4.42992 12.386C2.7399 9.77719 1.68817 6.80698 1.35992 3.71599C1.33493 3.43945 1.3678 3.16075 1.45642 2.89761C1.54505 2.63447 1.68749 2.39267 1.87469 2.18761C2.06188 1.98254 2.28973 1.81869 2.54371 1.70651C2.7977 1.59432 3.07226 1.53625 3.34992 1.53599H6.34992C6.83523 1.53121 7.30572 1.70306 7.67369 2.01952C8.04165 2.33597 8.282 2.77543 8.34992 3.25599C8.47655 4.21605 8.71137 5.15871 9.04992 6.06599C9.18447 6.42391 9.21359 6.8129 9.13383 7.18687C9.05407 7.56083 8.86879 7.9041 8.59992 8.17599L7.32992 9.44599C8.75348 11.9495 10.8264 14.0224 13.3299 15.446L14.5999 14.176C14.8718 13.9071 15.2151 13.7218 15.589 13.6421C15.963 13.5623 16.352 13.5914 16.7099 13.726C17.6172 14.0645 18.5599 14.2994 19.5199 14.426C20.0057 14.4945 20.4493 14.7392 20.7665 15.1135C21.0836 15.4878 21.2521 15.9656 21.2399 16.456Z" stroke="#0C1D3E" stroke-width="2" stroke-linecap="round" stroke-linejoin="round"/>
</svg>
