<svg width="64" height="64" viewBox="0 0 64 64" fill="none" xmlns="http://www.w3.org/2000/svg">
              <g clip-path="url(#clip0_5_31)">
              <g clip-path="url(#clip1_5_31)">
              <path d="M7.52941 39.9059C11.6878 39.9059 15.0588 36.5348 15.0588 32.3765C15.0588 28.2181 11.6878 24.847 7.52941 24.847C3.37103 24.847 0 28.2181 0 32.3765C0 36.5348 3.37103 39.9059 7.52941 39.9059Z" fill="#9BD0FF"/>
              <path d="M43.6705 18.0706C47.8289 18.0706 51.1999 14.6996 51.1999 10.5412C51.1999 6.3828 47.8289 3.01176 43.6705 3.01176C39.5121 3.01176 36.1411 6.3828 36.1411 10.5412C36.1411 14.6996 39.5121 18.0706 43.6705 18.0706Z" fill="#9BD0FF"/>
              <path d="M44.4236 60.2353C48.582 60.2353 51.953 56.8642 51.953 52.7059C51.953 48.5475 48.582 45.1765 44.4236 45.1765C40.2652 45.1765 36.8942 48.5475 36.8942 52.7059C36.8942 56.8642 40.2652 60.2353 44.4236 60.2353Z" fill="#9BD0FF"/>
              <path d="M31.6236 41.4118C37.0295 41.4118 41.4118 37.0294 41.4118 31.6235C41.4118 26.2176 37.0295 21.8353 31.6236 21.8353C26.2177 21.8353 21.8353 26.2176 21.8353 31.6235C21.8353 37.0294 26.2177 41.4118 31.6236 41.4118Z" fill="#306FD5"/>
              <path d="M23.9595 47.345L27.9508 40.6928C27.2445 40.4066 26.5827 40.0393 25.9698 39.6049L21.943 46.315C22.6718 46.5559 23.3487 46.906 23.9595 47.345Z" fill="#0C1D3E"/>
              <path d="M23.2065 16.655C22.5952 17.0932 21.919 17.4434 21.1902 17.685L25.1545 24.2906C25.7199 23.7913 26.3381 23.3509 27.009 22.991L23.2065 16.655Z" fill="#0C1D3E"/>
              <path d="M49.0353 32.7529C48.9796 32.3832 48.9412 32.0082 48.9412 31.6235C48.9412 31.2388 48.9796 30.8631 49.0353 30.4941H41.3411C41.3847 30.8653 41.4118 31.241 41.4118 31.6235C41.4118 32.006 41.3847 32.3818 41.3411 32.7529H49.0353Z" fill="#0C1D3E"/>
              <path d="M18.8235 18.0706C22.9819 18.0706 26.3529 14.6996 26.3529 10.5412C26.3529 6.3828 22.9819 3.01176 18.8235 3.01176C14.6651 3.01176 11.2941 6.3828 11.2941 10.5412C11.2941 14.6996 14.6651 18.0706 18.8235 18.0706Z" fill="#306FD5"/>
              <path d="M56.4706 39.1529C60.629 39.1529 64 35.7819 64 31.6235C64 27.4651 60.629 24.0941 56.4706 24.0941C52.3122 24.0941 48.9412 27.4651 48.9412 31.6235C48.9412 35.7819 52.3122 39.1529 56.4706 39.1529Z" fill="#306FD5"/>
              <path d="M19.5764 60.9882C23.7348 60.9882 27.1058 57.6172 27.1058 53.4588C27.1058 49.3004 23.7348 45.9294 19.5764 45.9294C15.418 45.9294 12.047 49.3004 12.047 53.4588C12.047 57.6172 15.418 60.9882 19.5764 60.9882Z" fill="#306FD5"/>
              </g>
              </g>
              <defs>
              <clipPath id="clip0_5_31">
              <rect width="64" height="64" fill="white"/>
              </clipPath>
              <clipPath id="clip1_5_31">
              <rect width="64" height="64" fill="white"/>
              </clipPath>
              </defs>
            </svg>
