<svg width="65" height="64" viewBox="0 0 65 64" fill="none" xmlns="http://www.w3.org/2000/svg">
              <path d="M32.704 10.6667C18.63 10.6667 7.18018 22.1165 7.18018 36.1905C7.18018 50.2644 18.63 61.7143 32.704 61.7143C46.7779 61.7143 58.2278 50.2644 58.2278 36.1905C58.2278 22.1165 46.7779 10.6667 32.704 10.6667Z" fill="#F2F8FD"/>
              <path d="M18.6285 24.4937L21.3226 27.187C21.769 27.6335 22.4921 27.6335 22.9386 27.187C23.3851 26.7406 23.3851 26.0168 22.9386 25.5702L20.2446 22.8769C19.7982 22.4312 19.0744 22.4312 18.6285 22.8769C18.1821 23.3242 18.1821 24.0481 18.6285 24.4937Z" fill="#9BD0FF"/>
              <path d="M14.0998 37.7158L17.9094 37.7143C18.5409 37.7143 19.0522 37.2022 19.0522 36.5714C19.0522 35.9399 18.5402 35.4286 17.9086 35.4286L14.0991 35.43C13.4683 35.43 12.957 35.9421 12.957 36.5729C12.957 37.2039 13.4689 37.7158 14.0998 37.7158Z" fill="#9BD0FF"/>
              <path d="M20.2454 50.2667L22.9387 47.5719C23.3851 47.1254 23.3851 46.4016 22.9387 45.9551C22.4923 45.5086 21.7685 45.5094 21.3226 45.9551L18.6293 48.6498C18.1829 49.0963 18.1829 49.8201 18.6293 50.2667C19.0759 50.7131 19.7997 50.7131 20.2454 50.2667Z" fill="#9BD0FF"/>
              <path d="M33.4659 54.7961V50.9851C33.4659 50.3536 32.9538 49.8423 32.323 49.8423C31.6922 49.8423 31.1802 50.3536 31.1802 50.9851V54.7961C31.1802 55.4269 31.6922 55.939 32.323 55.939C32.9538 55.939 33.4659 55.4271 33.4659 54.7961Z" fill="#9BD0FF"/>
              <path d="M46.0183 48.6506L43.3235 45.9558C42.8771 45.5094 42.154 45.5094 41.7074 45.9558C41.261 46.4015 41.261 47.1253 41.7074 47.5719L44.4022 50.2667C44.8487 50.7131 45.5717 50.7131 46.0183 50.2667C46.4649 49.8202 46.4647 49.0964 46.0183 48.6506Z" fill="#9BD0FF"/>
              <path d="M32.704 10.6667C32.576 10.6667 32.4502 10.6743 32.323 10.6766V16.381C32.9538 16.381 33.4659 16.8923 33.4659 17.5238V21.3348C33.4659 21.9656 32.9538 22.4777 32.323 22.4777V32.0274C32.4495 32.0159 32.5745 32 32.704 32C35.0178 32 36.8944 33.8766 36.8944 36.1905C36.8944 36.3192 36.8868 36.4457 36.8754 36.5714H44.8944C44.8959 35.9414 45.4065 35.4301 46.0365 35.4301L49.8461 35.4286C50.4778 35.4286 50.9897 35.9399 50.9897 36.5714H58.2178C58.22 36.4442 58.2278 36.3185 58.2278 36.1905C58.2278 22.1165 46.7779 10.6667 32.704 10.6667ZM46.0175 24.493L43.3234 27.1871C42.877 27.6335 42.154 27.6335 41.7074 27.1871C41.2609 26.7406 41.2609 26.0168 41.7074 25.571L44.4014 22.8769C44.8478 22.4305 45.5709 22.4305 46.0175 22.8769C46.4639 23.3234 46.4639 24.0472 46.0175 24.493Z" fill="#306FD5"/>
              <path d="M55.7448 20.6141L57.4431 18.915C58.6279 17.7295 58.628 15.7897 57.4424 14.6042L54.2835 11.4452C53.0979 10.2597 51.1589 10.2604 49.9748 11.446L48.2759 13.1458C44.2271 10.4052 39.4172 8.70476 34.2278 8.42426V6.09524H38.4183C40.0945 6.09524 41.4659 4.72381 41.4659 3.04762C41.4659 1.37143 40.0945 0 38.4183 0H26.2278C24.5516 0 23.1802 1.37143 23.1802 3.04762C23.1802 4.72381 24.5516 6.09524 26.2278 6.09524H30.4183V8.48229C16.1287 9.64568 4.89447 21.6015 4.89447 36.1905C4.89447 51.5497 17.344 64 32.704 64C48.0632 64 60.5135 51.5497 60.5135 36.1905C60.5135 30.419 58.7543 25.0583 55.7448 20.6141ZM32.704 61.7143C18.63 61.7143 7.18018 50.2644 7.18018 36.1905C7.18018 22.1165 18.63 10.6667 32.704 10.6667C46.778 10.6667 58.2278 22.1165 58.2278 36.1905C58.2278 50.2644 46.778 61.7143 32.704 61.7143Z" fill="#9BD0FF"/>
              <path d="M32.704 40.381C35.0183 40.381 36.8944 38.5048 36.8944 36.1905C36.8944 33.8761 35.0183 32 32.704 32C30.3896 32 28.5135 33.8761 28.5135 36.1905C28.5135 38.5048 30.3896 40.381 32.704 40.381Z" fill="#0C1D3E"/>
              <path d="M46.0373 37.7158L49.8468 37.7143C50.4785 37.7143 50.9897 37.2022 50.9897 36.5714C50.9897 35.9399 50.4776 35.4286 49.846 35.4286L46.0365 35.43C45.4057 35.43 44.8944 35.9421 44.8944 36.5729C44.8944 37.2039 45.4065 37.7158 46.0373 37.7158Z" fill="#0C1D3E"/>
              <path d="M33.4659 21.3348V17.5238C33.4659 16.8923 32.9538 16.381 32.323 16.381C31.6922 16.381 31.1802 16.8923 31.1802 17.5238V21.3348C31.1802 21.9656 31.6922 22.4777 32.323 22.4777C32.9538 22.4777 33.4659 21.9658 33.4659 21.3348Z" fill="#0C1D3E"/>
              <path d="M44.4014 22.8769L41.7074 25.571C41.261 26.0167 41.261 26.7405 41.7074 27.1871C42.1538 27.6335 42.8769 27.6335 43.3233 27.1871L46.0174 24.493C46.4638 24.0466 46.4638 23.3228 46.0174 22.8769C45.5711 22.4305 44.8473 22.4305 44.4014 22.8769Z" fill="#0C1D3E"/>
            </svg>
